<svg xmlns="http://www.w3.org/2000/svg" xmlns:xlink="http://www.w3.org/1999/xlink" width="50" zoomAndPan="magnify" viewBox="0 0 37.5 37.499999" height="50" preserveAspectRatio="xMidYMid meet" version="1.0"><defs><g/><clipPath id="9494d1ac56"><path d="M 1.039062 18.503906 L 7.992188 18.503906 L 7.992188 22.082031 L 1.039062 22.082031 Z M 1.039062 18.503906 " clip-rule="nonzero"/></clipPath><clipPath id="05da01d49a"><path d="M 32.355469 24.054688 L 35.964844 24.054688 L 35.964844 27.664062 L 32.355469 27.664062 Z M 32.355469 24.054688 " clip-rule="nonzero"/></clipPath><clipPath id="ebb77a9cf9"><path d="M 34.160156 24.054688 C 33.164062 24.054688 32.355469 24.863281 32.355469 25.859375 C 32.355469 26.859375 33.164062 27.664062 34.160156 27.664062 C 35.15625 27.664062 35.964844 26.859375 35.964844 25.859375 C 35.964844 24.863281 35.15625 24.054688 34.160156 24.054688 Z M 34.160156 24.054688 " clip-rule="nonzero"/></clipPath></defs><g fill="#e6e3dd" fill-opacity="1"><g transform="translate(7.354975, 27.640892)"><g><path d="M 15.453125 0 L 13.171875 -8.171875 L 13.0625 -8.171875 L 10.75 0 L 5.359375 0 L 0 -14.671875 L 5.953125 -14.671875 L 8.171875 -6 L 8.359375 -6 L 10.671875 -14.671875 L 16.171875 -14.671875 L 18.40625 -6 L 18.59375 -6 L 20.84375 -14.671875 L 26.234375 -14.671875 L 20.84375 0 Z M 15.453125 0 "/></g></g></g><g clip-path="url(#9494d1ac56)"><path fill="#e6e3dd" d="M 1.039062 18.503906 L 7.988281 18.503906 L 7.988281 22.082031 L 1.039062 22.082031 Z M 1.039062 18.503906 " fill-opacity="1" fill-rule="nonzero"/></g><g clip-path="url(#05da01d49a)"><g clip-path="url(#ebb77a9cf9)"><path fill="#e6e3dd" d="M 32.355469 24.054688 L 35.964844 24.054688 L 35.964844 27.664062 L 32.355469 27.664062 Z M 32.355469 24.054688 " fill-opacity="1" fill-rule="nonzero"/></g></g></svg>