<svg xmlns="http://www.w3.org/2000/svg" xmlns:xlink="http://www.w3.org/1999/xlink" width="266" zoomAndPan="magnify" viewBox="0 0 199.5 54.75" height="73" preserveAspectRatio="xMidYMid meet" version="1.0"><defs><g/><clipPath id="1ebb2304a3"><path d="M 2.675781 27.542969 L 17.136719 27.542969 L 17.136719 34.976562 L 2.675781 34.976562 Z M 2.675781 27.542969 " clip-rule="nonzero"/></clipPath><clipPath id="403d55ff8e"><path d="M 4.171875 27.542969 L 15.617188 27.542969 C 16.015625 27.542969 16.394531 27.703125 16.675781 27.980469 C 16.953125 28.261719 17.113281 28.640625 17.113281 29.039062 L 17.113281 33.484375 C 17.113281 33.878906 16.953125 34.261719 16.675781 34.539062 C 16.394531 34.820312 16.015625 34.976562 15.617188 34.976562 L 4.171875 34.976562 C 3.773438 34.976562 3.394531 34.820312 3.113281 34.539062 C 2.835938 34.261719 2.675781 33.878906 2.675781 33.484375 L 2.675781 29.039062 C 2.675781 28.640625 2.835938 28.261719 3.113281 27.980469 C 3.394531 27.703125 3.773438 27.542969 4.171875 27.542969 Z M 4.171875 27.542969 " clip-rule="nonzero"/></clipPath><clipPath id="bc3aaab5b6"><path d="M 187.742188 31.261719 L 198.796875 31.261719 L 198.796875 42.316406 L 187.742188 42.316406 Z M 187.742188 31.261719 " clip-rule="nonzero"/></clipPath><clipPath id="e934375f35"><path d="M 193.269531 31.261719 C 190.21875 31.261719 187.742188 33.734375 187.742188 36.789062 C 187.742188 39.839844 190.21875 42.316406 193.269531 42.316406 C 196.324219 42.316406 198.796875 39.839844 198.796875 36.789062 C 198.796875 33.734375 196.324219 31.261719 193.269531 31.261719 Z M 193.269531 31.261719 " clip-rule="nonzero"/></clipPath></defs><g clip-path="url(#1ebb2304a3)"><g clip-path="url(#403d55ff8e)"><path fill="#e6e3dd" d="M 2.675781 27.542969 L 17.109375 27.542969 L 17.109375 34.976562 L 2.675781 34.976562 Z M 2.675781 27.542969 " fill-opacity="1" fill-rule="nonzero"/></g></g><g clip-path="url(#bc3aaab5b6)"><g clip-path="url(#e934375f35)"><path fill="#33bbcf" d="M 187.742188 31.261719 L 198.796875 31.261719 L 198.796875 42.316406 L 187.742188 42.316406 Z M 187.742188 31.261719 " fill-opacity="1" fill-rule="nonzero"/></g></g><g fill="#ffffff" fill-opacity="1"><g transform="translate(27.329517, 40.91351)"><g><path d="M 23.078125 0 L 19.671875 -12.203125 L 19.515625 -12.203125 L 16.0625 0 L 8.015625 0 L 0 -21.921875 L 8.890625 -21.921875 L 12.203125 -8.96875 L 12.5 -8.96875 L 15.9375 -21.921875 L 24.15625 -21.921875 L 27.484375 -8.96875 L 27.78125 -8.96875 L 31.140625 -21.921875 L 39.1875 -21.921875 L 31.140625 0 Z M 23.078125 0 "/></g></g></g><g fill="#ffffff" fill-opacity="1"><g transform="translate(62.286721, 40.91351)"><g><path d="M 10.75 -19.640625 C 11.632812 -20.523438 12.671875 -21.207031 13.859375 -21.6875 C 15.054688 -22.175781 16.304688 -22.421875 17.609375 -22.421875 C 20.148438 -22.421875 22.054688 -21.710938 23.328125 -20.296875 C 24.597656 -18.890625 25.234375 -16.859375 25.234375 -14.203125 L 25.234375 0 L 16.984375 0 L 16.984375 -13.203125 C 16.984375 -14.140625 16.738281 -14.890625 16.25 -15.453125 C 15.769531 -16.023438 15.085938 -16.3125 14.203125 -16.3125 C 13.171875 -16.3125 12.335938 -15.976562 11.703125 -15.3125 C 11.066406 -14.65625 10.75 -13.84375 10.75 -12.875 L 10.75 0 L 2.484375 0 L 2.484375 -30.09375 L 10.75 -30.09375 Z M 10.75 -19.640625 "/></g></g></g><g fill="#ffffff" fill-opacity="1"><g transform="translate(85.743571, 40.91351)"><g><path d="M 17.5625 -0.671875 C 16.425781 2.398438 15.035156 4.734375 13.390625 6.328125 C 11.742188 7.921875 9.4375 8.71875 6.46875 8.71875 C 4.675781 8.71875 3.085938 8.46875 1.703125 7.96875 L 1.703125 3.03125 L 5.015625 3.03125 C 7.097656 3.03125 8.332031 2.019531 8.71875 0 L 0 -21.921875 L 8.890625 -21.921875 L 13.078125 -7.34375 L 13.375 -7.34375 L 17.234375 -21.921875 L 25.359375 -21.921875 Z M 17.5625 -0.671875 "/></g></g></g><g fill="#ffffff" fill-opacity="1"><g transform="translate(106.875451, 40.91351)"><g><path d="M 16.9375 -22.421875 C 19.894531 -22.421875 22.175781 -21.453125 23.78125 -19.515625 C 25.394531 -17.578125 26.203125 -14.710938 26.203125 -10.921875 C 26.203125 -7.148438 25.394531 -4.300781 23.78125 -2.375 C 22.175781 -0.457031 19.894531 0.5 16.9375 0.5 C 14.394531 0.5 12.347656 -0.332031 10.796875 -2 L 10.796875 8.171875 L 2.53125 8.171875 L 2.53125 -21.921875 L 9.265625 -21.921875 L 9.96875 -18.8125 C 11.570312 -21.21875 13.894531 -22.421875 16.9375 -22.421875 Z M 14.359375 -16.3125 C 13.140625 -16.3125 12.226562 -15.878906 11.625 -15.015625 C 11.019531 -14.160156 10.71875 -13.046875 10.71875 -11.671875 L 10.71875 -10.296875 C 10.71875 -8.910156 11.019531 -7.78125 11.625 -6.90625 C 12.226562 -6.039062 13.140625 -5.609375 14.359375 -5.609375 C 16.742188 -5.609375 17.9375 -7.03125 17.9375 -9.875 L 17.9375 -12.078125 C 17.9375 -14.898438 16.742188 -16.3125 14.359375 -16.3125 Z M 14.359375 -16.3125 "/></g></g></g><g fill="#ffffff" fill-opacity="1"><g transform="translate(130.332298, 40.91351)"><g><path d="M 10.75 -19.640625 C 11.632812 -20.523438 12.671875 -21.207031 13.859375 -21.6875 C 15.054688 -22.175781 16.304688 -22.421875 17.609375 -22.421875 C 20.148438 -22.421875 22.054688 -21.710938 23.328125 -20.296875 C 24.597656 -18.890625 25.234375 -16.859375 25.234375 -14.203125 L 25.234375 0 L 16.984375 0 L 16.984375 -13.203125 C 16.984375 -14.140625 16.738281 -14.890625 16.25 -15.453125 C 15.769531 -16.023438 15.085938 -16.3125 14.203125 -16.3125 C 13.171875 -16.3125 12.335938 -15.976562 11.703125 -15.3125 C 11.066406 -14.65625 10.75 -13.84375 10.75 -12.875 L 10.75 0 L 2.484375 0 L 2.484375 -30.09375 L 10.75 -30.09375 Z M 10.75 -19.640625 "/></g></g></g><g fill="#ffffff" fill-opacity="1"><g transform="translate(153.789146, 40.91351)"><g><path d="M 17.5625 -0.671875 C 16.425781 2.398438 15.035156 4.734375 13.390625 6.328125 C 11.742188 7.921875 9.4375 8.71875 6.46875 8.71875 C 4.675781 8.71875 3.085938 8.46875 1.703125 7.96875 L 1.703125 3.03125 L 5.015625 3.03125 C 7.097656 3.03125 8.332031 2.019531 8.71875 0 L 0 -21.921875 L 8.890625 -21.921875 L 13.078125 -7.34375 L 13.375 -7.34375 L 17.234375 -21.921875 L 25.359375 -21.921875 Z M 17.5625 -0.671875 "/></g></g></g></svg>